<?xml version="1.0" standalone="no"?>
<!DOCTYPE svg PUBLIC "-//W3C//DTD SVG 20010904//EN"
 "http://www.w3.org/TR/2001/REC-SVG-20010904/DTD/svg10.dtd">
<svg version="1.0" xmlns="http://www.w3.org/2000/svg"
 width="1024.000000pt" height="1024.000000pt" viewBox="0 0 1024.000000 1024.000000"
 preserveAspectRatio="xMidYMid meet">

<g transform="translate(0.000000,1024.000000) scale(0.100000,-0.100000)"
fill="#000000" stroke="none">
<path d="M5375 8605 c-58 -22 -112 -69 -146 -130 -27 -48 -37 -57 -115 -94
-308 -148 -491 -385 -672 -872 -236 -633 -616 -1221 -1112 -1720 -327 -328
-604 -546 -997 -783 -75 -45 -93 -68 -93 -119 0 -76 46 -127 114 -127 86 0
551 278 866 518 252 193 517 435 741 677 204 221 438 531 594 786 71 115 220
407 260 509 16 41 34 78 39 82 5 3 73 5 151 3 l142 -2 7 99 c3 54 7 104 9 111
1 9 -31 13 -125 15 l-128 3 0 72 c1 209 68 328 256 452 l79 53 34 -30 c18 -16
44 -34 57 -40 l24 -11 0 -218 0 -218 48 -6 c72 -10 107 -23 132 -50 l23 -25
-71 0 -72 0 -1 -37 c-1 -37 -2 -37 -8 -8 l-6 30 -115 0 -115 0 -7 -60 c-7 -67
4 -133 24 -146 7 -5 48 -9 91 -9 l77 0 0 -210 0 -210 25 0 c28 0 80 -24 103
-46 11 -12 -9 -14 -132 -14 l-146 0 0 -40 0 -40 -75 0 -75 0 0 -80 0 -80 405
0 405 0 0 74 c0 85 -1 86 -86 86 l-54 0 0 80 0 79 -77 3 -78 3 -3 198 -2 197
69 0 c50 0 72 4 82 16 10 13 33 15 136 12 l123 -3 0 113 0 112 -124 0 c-102 0
-125 3 -130 15 -8 22 -68 45 -116 45 l-40 0 0 179 c0 201 7 271 25 271 28 0
116 82 142 133 36 69 39 177 6 248 -25 57 -84 118 -138 144 -52 25 -174 30
-230 10z"/>
<path d="M4580 6320 l0 -170 130 0 130 0 0 -140 0 -140 -68 0 c-78 0 -97 -12
-109 -71 -3 -19 -15 -40 -25 -48 -18 -12 -19 -25 -16 -198 3 -163 5 -186 21
-194 11 -7 17 -22 17 -48 0 -50 18 -99 40 -111 10 -6 46 -10 79 -10 l61 0 0
-625 0 -624 -50 -47 -50 -47 0 -93 c0 -51 3 -99 6 -108 5 -13 25 -16 110 -16
l104 0 0 95 c0 84 -2 95 -20 105 -28 15 -25 26 20 71 l40 40 0 739 0 740 45 0
45 0 0 -750 0 -750 294 0 c161 0 307 -3 324 -6 l31 -6 -26 -39 -26 -39 -307 0
c-192 0 -310 -4 -312 -10 -1 -5 -2 -50 0 -100 l3 -90 562 2 562 3 3 105 3 105
-56 51 -56 52 4 618 3 619 70 5 c79 6 98 16 115 65 7 19 21 36 33 39 37 10
726 7 745 -4 26 -13 80 -101 98 -157 8 -27 18 -91 21 -143 l7 -95 304 -3 304
-2 -6 162 c-9 234 -47 375 -142 524 -81 127 -218 240 -361 298 -124 51 -183
56 -600 56 l-386 0 -35 30 c-30 27 -40 30 -101 30 l-67 0 3 80 4 80 119 0 119
0 -2 168 -3 167 -877 3 -878 2 0 -170z"/>
<path d="M6984 4743 c2 -16 4 -74 5 -130 l1 -103 485 0 485 0 0 130 0 130
-489 0 -490 0 3 -27z"/>
<path d="M4560 3370 l0 -130 91 0 c69 0 89 -3 86 -12 -15 -37 -117 -348 -117
-357 0 -7 37 -11 110 -11 81 0 110 3 110 13 0 6 7 86 15 177 8 91 15 191 15
223 l0 57 46 0 46 0 -6 -102 c-3 -57 -9 -163 -12 -235 l-7 -133 696 0 695 0
-25 82 c-13 44 -42 130 -63 189 l-39 108 87 3 87 3 0 125 0 125 -907 3 -908 2
0 -130z"/>
<path d="M4288 2702 c-16 -3 -18 -20 -18 -171 l0 -168 31 -7 c17 -3 560 -6
1205 -6 l1174 0 -2 178 -3 177 -1185 1 c-652 0 -1193 -1 -1202 -4z"/>
<path d="M3480 1995 l0 -195 2080 0 2080 0 0 195 0 195 -2080 0 -2080 0 0
-195z"/>
<path d="M2720 1555 l0 -85 -173 0 c-184 0 -227 -7 -264 -42 -36 -33 -33 -107
6 -150 l29 -33 3190 0 c3486 0 3226 -5 3258 57 27 52 12 113 -35 145 -22 15
-53 18 -199 20 l-174 3 -3 72 c-1 40 -3 79 -4 86 -1 9 -571 12 -2816 12
l-2815 0 0 -85z"/>
</g>
</svg>
