<svg xmlns="http://www.w3.org/2000/svg" viewBox="0 0 400 240" width="400" height="240">
  <rect width="400" height="240" fill="#F0E6D2"/>
  <g opacity="0.4">
    <ellipse cx="120" cy="100" rx="55" ry="40" fill="none" stroke="#7A5C3A" stroke-width="1.5" stroke-dasharray="3 3"/>
    <ellipse cx="270" cy="120" rx="50" ry="38" fill="none" stroke="#7A5C3A" stroke-width="1.5" stroke-dasharray="3 3"/>
  </g>
  <g fill="#7A5C3A">
    <circle cx="100" cy="85" r="6"/>
    <circle cx="125" cy="100" r="6"/>
    <circle cx="115" cy="120" r="6"/>
    <circle cx="140" cy="115" r="6"/>
    <circle cx="95" cy="110" r="6"/>
  </g>
  <g fill="#5C7A4A">
    <circle cx="255" cy="105" r="6"/>
    <circle cx="280" cy="120" r="6"/>
    <circle cx="270" cy="140" r="6"/>
    <circle cx="295" cy="125" r="6"/>
    <circle cx="250" cy="135" r="6"/>
  </g>
  <g fill="#B5945C">
    <circle cx="195" cy="65" r="5"/>
    <circle cx="205" cy="170" r="5"/>
    <circle cx="50" cy="155" r="5"/>
    <circle cx="350" cy="60" r="5"/>
    <circle cx="60" cy="55" r="5"/>
    <circle cx="345" cy="170" r="5"/>
  </g>
  <g stroke="#9B8A6F" stroke-width="0.8" opacity="0.5">
    <line x1="100" y1="85" x2="125" y2="100"/>
    <line x1="125" y1="100" x2="115" y2="120"/>
    <line x1="115" y1="120" x2="140" y2="115"/>
    <line x1="100" y1="85" x2="95" y2="110"/>
    <line x1="255" y1="105" x2="280" y2="120"/>
    <line x1="280" y1="120" x2="270" y2="140"/>
    <line x1="270" y1="140" x2="295" y2="125"/>
    <line x1="255" y1="105" x2="250" y2="135"/>
  </g>
  <text x="200" y="222" text-anchor="middle" font-family="Inter, system-ui, sans-serif"
        font-size="11" font-weight="600" fill="#7A5C3A" letter-spacing="2">OPENREFINE</text>
</svg>
