<svg xmlns="http://www.w3.org/2000/svg" viewBox="0 0 400 240" width="400" height="240">
  <rect width="400" height="240" fill="#F0E6D2"/>
  <g transform="translate(80 60)">
    <rect width="240" height="120" rx="4" fill="#FAF7F2" stroke="#7A5C3A" stroke-width="2"/>
    <line x1="0" y1="24" x2="240" y2="24" stroke="#7A5C3A" stroke-width="1.5"/>
    <line x1="80" y1="0" x2="80" y2="120" stroke="#D9CDB6" stroke-width="1"/>
    <line x1="160" y1="0" x2="160" y2="120" stroke="#D9CDB6" stroke-width="1"/>
    <line x1="0" y1="48" x2="240" y2="48" stroke="#D9CDB6" stroke-width="1"/>
    <line x1="0" y1="72" x2="240" y2="72" stroke="#D9CDB6" stroke-width="1"/>
    <line x1="0" y1="96" x2="240" y2="96" stroke="#D9CDB6" stroke-width="1"/>
    <rect x="0" y="0" width="240" height="24" fill="#B5945C" opacity="0.25"/>
    <rect x="2" y="50" width="74" height="20" fill="#5C7A4A" opacity="0.18"/>
    <rect x="82" y="50" width="76" height="20" fill="#5C7A4A" opacity="0.18"/>
    <rect x="2" y="74" width="74" height="20" fill="#B5945C" opacity="0.3"/>
    <line x1="86" y1="84" x2="156" y2="84" stroke="#9B8A6F" stroke-width="2" stroke-dasharray="3 2"/>
    <rect x="2" y="98" width="74" height="20" fill="#5C7A4A" opacity="0.18"/>
    <rect x="82" y="98" width="76" height="20" fill="#5C7A4A" opacity="0.18"/>
    <rect x="162" y="98" width="76" height="20" fill="#5C7A4A" opacity="0.18"/>
  </g>
  <g transform="translate(290 50)" fill="#7A5C3A">
    <path d="M 0 8 L 8 0 L 28 20 L 20 28 Z" stroke="#7A5C3A" stroke-width="1"/>
    <circle cx="6" cy="6" r="3" fill="#B5945C"/>
  </g>
  <text x="200" y="222" text-anchor="middle" font-family="Inter, system-ui, sans-serif"
        font-size="11" font-weight="600" fill="#7A5C3A" letter-spacing="2">VERI TEMIZLIGI</text>
</svg>
