<svg xmlns="http://www.w3.org/2000/svg" viewBox="0 0 400 240" width="400" height="240">
  <rect width="400" height="240" fill="#F0E6D2"/>
  <g transform="translate(140 60)">
    <rect x="0" y="0" width="22" height="100" fill="#7A5C3A" stroke="#2D2418" stroke-width="1"/>
    <rect x="2" y="20" width="18" height="3" fill="#B5945C"/>
    <rect x="2" y="80" width="18" height="3" fill="#B5945C"/>
    <rect x="26" y="10" width="22" height="90" fill="#5C7A4A" stroke="#2D2418" stroke-width="1"/>
    <rect x="28" y="30" width="18" height="3" fill="#F0E6D2"/>
    <rect x="28" y="80" width="18" height="3" fill="#F0E6D2"/>
    <rect x="52" y="5" width="22" height="95" fill="#B5945C" stroke="#2D2418" stroke-width="1"/>
    <rect x="54" y="22" width="18" height="3" fill="#FAF7F2"/>
    <rect x="54" y="78" width="18" height="3" fill="#FAF7F2"/>
    <rect x="78" y="15" width="22" height="85" fill="#7A5C3A" stroke="#2D2418" stroke-width="1"/>
    <rect x="80" y="32" width="18" height="3" fill="#B5945C"/>
    <rect x="80" y="78" width="18" height="3" fill="#B5945C"/>
    <rect x="-3" y="100" width="115" height="6" fill="#2D2418"/>
    <g transform="translate(115 50) rotate(15)">
      <rect width="32" height="42" fill="#FAF7F2" stroke="#7A5C3A" stroke-width="1.5"/>
      <line x1="4" y1="8" x2="28" y2="8" stroke="#9B8A6F" stroke-width="0.8"/>
      <line x1="4" y1="14" x2="28" y2="14" stroke="#9B8A6F" stroke-width="0.8"/>
      <line x1="4" y1="20" x2="22" y2="20" stroke="#9B8A6F" stroke-width="0.8"/>
      <line x1="4" y1="26" x2="28" y2="26" stroke="#9B8A6F" stroke-width="0.8"/>
      <line x1="4" y1="32" x2="20" y2="32" stroke="#9B8A6F" stroke-width="0.8"/>
    </g>
  </g>
  <text x="200" y="222" text-anchor="middle" font-family="Inter, system-ui, sans-serif"
        font-size="11" font-weight="600" fill="#7A5C3A" letter-spacing="2">ZOTERO REHBERI</text>
</svg>
